# xmcd
#
# Track frame offsets: 
#        150
#        15203
#        30230
#        45258
#        60570
#        74135
#        88003
#        103205
#        115793
#        127783
#        142258
#        158450
#
# Disc length: 2392 seconds
#
# Revision: 1
# Processed by: cddbd v1.5.1PL0 Copyright (c) Steve Scherf et al.
# Submitted via: ExactAudioCopy v0.95a5
#
DISCID=9109560c
DTITLE=Koufax - Social Life (Japanese Import)
DYEAR=2002
DGENRE=Indie
TTITLE0=Let Us Know
TTITLE1=Break It Off
TTITLE2=Social Life
TTITLE3=Saturday's Alone
TTITLE4=Come Back To Life
TTITLE5=So Put On
TTITLE6=Bright Side
TTITLE7=Younger Body, Older Soul
TTITLE8=Simply Passing Time
TTITLE9=Adultery
TTITLE10=Honest Answers
TTITLE11=So Long To Good Times
EXTD=YEAR: 2002
EXTT0=
EXTT1=
EXTT2=
EXTT3=
EXTT4=
EXTT5=
EXTT6=
EXTT7=
EXTT8=
EXTT9=
EXTT10=
EXTT11=
PLAYORDER=
